# xmcd CD database file
#
# Track frame offsets:
#	180
#	33688
#	58821
#	80745
#	89481
#	121570
#	139131
#	163177
#	177668
#	197884
#	217925
#	229886
#	252488
#
# Disc length: 3516 seconds
#
# Revision: 0
# Processed by: cddbd v1.5.1PL0 Copyright (c) Steve Scherf et al.
# Submitted via: CDex 1.60beta1
#
DISCID=c30dba0d
DTITLE=Gary J. Hassay - A Survivor's Smile
DYEAR=1996
DGENRE=Jazz
TTITLE0=The International
TTITLE1=Rollin' Over
TTITLE2=I Know You Heard Me
TTITLE3=Blue Angel
TTITLE4=Sunday Morning
TTITLE5=9th Street
TTITLE6=Tinker's Lament
TTITLE7=Nose Bleed
TTITLE8=Daddy's Home
TTITLE9=Truce
TTITLE10=Harmonic Polka
TTITLE11=Another Year
TTITLE12=Told You So!
EXTD=YEAR: 1996
EXTT0=
EXTT1=
EXTT2=
EXTT3=
EXTT4=
EXTT5=
EXTT6=
EXTT7=
EXTT8=
EXTT9=
EXTT10=
EXTT11=
EXTT12=
PLAYORDER=
